<svg xmlns="http://www.w3.org/2000/svg" xmlns:xlink="http://www.w3.org/1999/xlink" width="200" zoomAndPan="magnify" viewBox="0 0 150 67.499998" height="90" preserveAspectRatio="xMidYMid meet" version="1.0"><defs><g/><clipPath id="190742e0e6"><path d="M 138 23.621094 L 143 23.621094 L 143 31.066406 L 138 31.066406 Z M 138 23.621094 " clip-rule="nonzero"/></clipPath><clipPath id="5226ce8d80"><path d="M 142 23.621094 L 147.445312 23.621094 L 147.445312 31.066406 L 142 31.066406 Z M 142 23.621094 " clip-rule="nonzero"/></clipPath><clipPath id="8bb3485fd5"><path d="M 62.34375 1.457031 L 84.675781 1.457031 L 84.675781 20.816406 L 62.34375 20.816406 Z M 62.34375 1.457031 " clip-rule="nonzero"/></clipPath><clipPath id="e37a638010"><path d="M 7 33 L 16.933594 33 L 16.933594 44.546875 L 7 44.546875 Z M 7 33 " clip-rule="nonzero"/></clipPath><clipPath id="3130e118cb"><path d="M 2.789062 23 L 13 23 L 13 34 L 2.789062 34 Z M 2.789062 23 " clip-rule="nonzero"/></clipPath><clipPath id="4b25a356fd"><path d="M 130.121094 36.222656 L 136.824219 36.222656 L 136.824219 45 L 130.121094 45 Z M 130.121094 36.222656 " clip-rule="nonzero"/></clipPath><clipPath id="5945d4ac5e"><path d="M 19.59375 55.386719 L 137.253906 55.386719 L 137.253906 60.304688 L 19.59375 60.304688 Z M 19.59375 55.386719 " clip-rule="nonzero"/></clipPath><clipPath id="4106f4c96a"><path d="M 19.59375 55.386719 L 20.660156 60.304688 L 137.238281 55.652344 L 137.171875 55.386719 Z M 19.59375 55.386719 " clip-rule="nonzero"/></clipPath></defs><g fill="#fffafa" fill-opacity="1"><g transform="translate(17.629892, 44.399387)"><g><path d="M 15.875 0 L 11.8125 -5.84375 L 7.34375 -5.84375 L 7.34375 0 L 2.484375 0 L 2.484375 -21 L 11.578125 -21 C 13.441406 -21 15.054688 -20.6875 16.421875 -20.0625 C 17.796875 -19.445312 18.851562 -18.566406 19.59375 -17.421875 C 20.332031 -16.285156 20.703125 -14.9375 20.703125 -13.375 C 20.703125 -11.820312 20.328125 -10.476562 19.578125 -9.34375 C 18.828125 -8.21875 17.757812 -7.351562 16.375 -6.75 L 21.09375 0 Z M 15.78125 -13.375 C 15.78125 -14.5625 15.398438 -15.46875 14.640625 -16.09375 C 13.878906 -16.726562 12.769531 -17.046875 11.3125 -17.046875 L 7.34375 -17.046875 L 7.34375 -9.71875 L 11.3125 -9.71875 C 12.769531 -9.71875 13.878906 -10.035156 14.640625 -10.671875 C 15.398438 -11.316406 15.78125 -12.21875 15.78125 -13.375 Z M 15.78125 -13.375 "/></g></g></g><g fill="#fffafa" fill-opacity="1"><g transform="translate(41.570332, 44.399387)"><g><path d="M 12.65625 0.359375 C 10.476562 0.359375 8.515625 -0.109375 6.765625 -1.046875 C 5.015625 -1.984375 3.644531 -3.273438 2.65625 -4.921875 C 1.664062 -6.578125 1.171875 -8.4375 1.171875 -10.5 C 1.171875 -12.5625 1.664062 -14.414062 2.65625 -16.0625 C 3.644531 -17.71875 5.015625 -19.015625 6.765625 -19.953125 C 8.515625 -20.890625 10.476562 -21.359375 12.65625 -21.359375 C 14.84375 -21.359375 16.804688 -20.890625 18.546875 -19.953125 C 20.285156 -19.015625 21.65625 -17.71875 22.65625 -16.0625 C 23.65625 -14.414062 24.15625 -12.5625 24.15625 -10.5 C 24.15625 -8.4375 23.65625 -6.578125 22.65625 -4.921875 C 21.65625 -3.273438 20.285156 -1.984375 18.546875 -1.046875 C 16.804688 -0.109375 14.84375 0.359375 12.65625 0.359375 Z M 12.65625 -3.78125 C 13.894531 -3.78125 15.015625 -4.0625 16.015625 -4.625 C 17.015625 -5.195312 17.800781 -5.992188 18.375 -7.015625 C 18.945312 -8.035156 19.234375 -9.195312 19.234375 -10.5 C 19.234375 -11.800781 18.945312 -12.960938 18.375 -13.984375 C 17.800781 -15.003906 17.015625 -15.796875 16.015625 -16.359375 C 15.015625 -16.929688 13.894531 -17.21875 12.65625 -17.21875 C 11.414062 -17.21875 10.296875 -16.929688 9.296875 -16.359375 C 8.296875 -15.796875 7.507812 -15.003906 6.9375 -13.984375 C 6.375 -12.960938 6.09375 -11.800781 6.09375 -10.5 C 6.09375 -9.195312 6.375 -8.035156 6.9375 -7.015625 C 7.507812 -5.992188 8.296875 -5.195312 9.296875 -4.625 C 10.296875 -4.0625 11.414062 -3.78125 12.65625 -3.78125 Z M 12.65625 -3.78125 "/></g></g></g><g fill="#fffafa" fill-opacity="1"><g transform="translate(68.78078, 44.399387)"><g><path d="M 15.875 0 L 11.8125 -5.84375 L 7.34375 -5.84375 L 7.34375 0 L 2.484375 0 L 2.484375 -21 L 11.578125 -21 C 13.441406 -21 15.054688 -20.6875 16.421875 -20.0625 C 17.796875 -19.445312 18.851562 -18.566406 19.59375 -17.421875 C 20.332031 -16.285156 20.703125 -14.9375 20.703125 -13.375 C 20.703125 -11.820312 20.328125 -10.476562 19.578125 -9.34375 C 18.828125 -8.21875 17.757812 -7.351562 16.375 -6.75 L 21.09375 0 Z M 15.78125 -13.375 C 15.78125 -14.5625 15.398438 -15.46875 14.640625 -16.09375 C 13.878906 -16.726562 12.769531 -17.046875 11.3125 -17.046875 L 7.34375 -17.046875 L 7.34375 -9.71875 L 11.3125 -9.71875 C 12.769531 -9.71875 13.878906 -10.035156 14.640625 -10.671875 C 15.398438 -11.316406 15.78125 -12.21875 15.78125 -13.375 Z M 15.78125 -13.375 "/></g></g></g><g fill="#fffafa" fill-opacity="1"><g transform="translate(92.721221, 44.399387)"><g><path d="M 2.484375 -21 L 7.34375 -21 L 7.34375 0 L 2.484375 0 Z M 2.484375 -21 "/></g></g></g><g fill="#fffafa" fill-opacity="1"><g transform="translate(104.451657, 44.399387)"><g><path d="M 15.875 0 L 11.8125 -5.84375 L 7.34375 -5.84375 L 7.34375 0 L 2.484375 0 L 2.484375 -21 L 11.578125 -21 C 13.441406 -21 15.054688 -20.6875 16.421875 -20.0625 C 17.796875 -19.445312 18.851562 -18.566406 19.59375 -17.421875 C 20.332031 -16.285156 20.703125 -14.9375 20.703125 -13.375 C 20.703125 -11.820312 20.328125 -10.476562 19.578125 -9.34375 C 18.828125 -8.21875 17.757812 -7.351562 16.375 -6.75 L 21.09375 0 Z M 15.78125 -13.375 C 15.78125 -14.5625 15.398438 -15.46875 14.640625 -16.09375 C 13.878906 -16.726562 12.769531 -17.046875 11.3125 -17.046875 L 7.34375 -17.046875 L 7.34375 -9.71875 L 11.3125 -9.71875 C 12.769531 -9.71875 13.878906 -10.035156 14.640625 -10.671875 C 15.398438 -11.316406 15.78125 -12.21875 15.78125 -13.375 Z M 15.78125 -13.375 "/></g></g></g><g fill="#fffafa" fill-opacity="1"><g transform="translate(128.392104, 44.399387)"><g><path d="M 2.484375 -21 L 7.34375 -21 L 7.34375 0 L 2.484375 0 Z M 2.484375 -21 "/></g></g></g><g clip-path="url(#190742e0e6)"><path fill="#0652e9" d="M 139.070312 31.125 L 139.019531 31.125 C 138.820312 31.128906 138.636719 31.078125 138.46875 30.96875 C 138.300781 30.863281 138.171875 30.71875 138.089844 30.535156 C 138.007812 30.355469 137.984375 30.164062 138.011719 29.964844 C 138.042969 29.769531 138.125 29.597656 138.261719 29.449219 L 139.625 27.933594 C 139.804688 27.734375 139.890625 27.5 139.882812 27.234375 C 139.878906 26.964844 139.78125 26.738281 139.589844 26.546875 L 138.394531 25.355469 C 137.769531 24.726562 138.203125 23.652344 139.089844 23.636719 C 139.363281 23.632812 139.597656 23.726562 139.796875 23.910156 L 142.601562 26.5625 C 142.703125 26.65625 142.78125 26.765625 142.835938 26.890625 C 142.890625 27.015625 142.917969 27.144531 142.917969 27.28125 C 142.921875 27.417969 142.894531 27.546875 142.84375 27.675781 C 142.792969 27.800781 142.71875 27.910156 142.621094 28.007812 L 139.761719 30.835938 C 139.570312 31.023438 139.339844 31.121094 139.070312 31.125 Z M 139.070312 31.125 " fill-opacity="1" fill-rule="nonzero"/></g><g clip-path="url(#5226ce8d80)"><path fill="#0652e9" d="M 143.351562 31.125 L 143.304688 31.125 C 143.101562 31.128906 142.917969 31.078125 142.75 30.96875 C 142.582031 30.863281 142.457031 30.71875 142.375 30.535156 C 142.292969 30.355469 142.265625 30.164062 142.296875 29.964844 C 142.328125 29.769531 142.410156 29.597656 142.542969 29.449219 L 143.910156 27.933594 C 144.089844 27.734375 144.175781 27.5 144.167969 27.234375 C 144.160156 26.964844 144.0625 26.738281 143.875 26.546875 L 142.679688 25.355469 C 142.050781 24.726562 142.484375 23.652344 143.375 23.636719 C 143.644531 23.632812 143.882812 23.726562 144.078125 23.910156 L 146.886719 26.5625 C 146.984375 26.65625 147.0625 26.765625 147.117188 26.890625 C 147.171875 27.015625 147.199219 27.144531 147.199219 27.28125 C 147.203125 27.417969 147.175781 27.546875 147.125 27.675781 C 147.074219 27.800781 147 27.910156 146.902344 28.007812 L 144.042969 30.835938 C 143.851562 31.023438 143.621094 31.121094 143.351562 31.125 Z M 143.351562 31.125 " fill-opacity="1" fill-rule="nonzero"/></g><g clip-path="url(#8bb3485fd5)"><path fill="#38b6ff" d="M 78.988281 14.535156 C 78.988281 15.453125 78.242188 16.199219 77.324219 16.199219 C 76.40625 16.199219 75.660156 15.453125 75.660156 14.535156 C 75.660156 13.613281 76.40625 12.871094 77.324219 12.871094 C 78.242188 12.871094 78.988281 13.613281 78.988281 14.535156 Z M 71.222656 14.535156 C 71.222656 15.453125 70.476562 16.199219 69.554688 16.199219 C 68.636719 16.199219 67.890625 15.453125 67.890625 14.535156 C 67.890625 13.613281 68.636719 12.871094 69.554688 12.871094 C 70.476562 12.871094 71.222656 13.613281 71.222656 14.535156 Z M 81.210938 17.308594 C 81.207031 18.535156 80.214844 19.527344 78.988281 19.527344 L 67.890625 19.527344 C 66.664062 19.527344 65.671875 18.535156 65.671875 17.308594 L 65.671875 11.761719 C 65.671875 10.535156 66.664062 9.542969 67.890625 9.539062 L 78.988281 9.539062 C 80.214844 9.542969 81.207031 10.535156 81.210938 11.761719 Z M 82.871094 12.871094 L 82.316406 12.871094 L 82.316406 11.761719 C 82.316406 9.921875 80.828125 8.429688 78.988281 8.429688 L 74.550781 8.429688 L 74.550781 5.902344 C 75.613281 5.292969 75.976562 3.933594 75.363281 2.871094 C 74.75 1.808594 73.394531 1.445312 72.332031 2.058594 C 71.269531 2.671875 70.902344 4.03125 71.519531 5.089844 C 71.710938 5.429688 71.992188 5.710938 72.332031 5.902344 L 72.332031 8.429688 L 67.890625 8.429688 C 66.054688 8.429688 64.5625 9.921875 64.5625 11.761719 L 64.5625 12.871094 L 64.007812 12.871094 C 63.085938 12.871094 62.34375 13.613281 62.34375 14.535156 C 62.34375 15.453125 63.085938 16.199219 64.007812 16.199219 L 64.5625 16.199219 L 64.5625 17.308594 C 64.5625 19.148438 66.054688 20.640625 67.890625 20.640625 L 78.988281 20.640625 C 80.828125 20.640625 82.316406 19.148438 82.316406 17.308594 L 82.316406 16.199219 L 82.871094 16.199219 C 83.792969 16.199219 84.539062 15.453125 84.539062 14.535156 C 84.539062 13.613281 83.792969 12.871094 82.871094 12.871094 " fill-opacity="1" fill-rule="nonzero"/></g><g clip-path="url(#e37a638010)"><path fill="#0652e9" d="M 14.414062 37.347656 L 15.714844 37.347656 L 12.976562 43.242188 L 11.921875 43.242188 L 9.183594 37.347656 L 10.484375 37.347656 L 12.4375 41.804688 L 12.460938 41.804688 Z M 7.738281 33.847656 L 7.738281 43.703125 C 7.738281 44.167969 8.113281 44.546875 8.578125 44.546875 L 16.320312 44.546875 C 16.785156 44.546875 17.160156 44.167969 17.160156 43.703125 L 17.160156 36.582031 L 7.738281 33.847656 " fill-opacity="1" fill-rule="nonzero"/></g><g clip-path="url(#3130e118cb)"><path fill="#38b6ff" d="M 8.070312 24.46875 L 10.773438 30.363281 L 9.472656 30.363281 L 7.519531 25.808594 L 7.492188 25.808594 L 5.542969 30.363281 L 4.242188 30.363281 L 6.941406 24.46875 Z M 2.792969 31.109375 L 12.21875 33.847656 L 12.21875 24.007812 C 12.21875 23.542969 11.839844 23.164062 11.375 23.164062 L 3.636719 23.164062 C 3.171875 23.164062 2.792969 23.542969 2.792969 24.007812 L 2.792969 31.109375 " fill-opacity="1" fill-rule="nonzero"/></g><g clip-path="url(#4b25a356fd)"><path fill="#fffafa" d="M 132.375 42.574219 C 132.492188 42.492188 132.621094 42.425781 132.757812 42.371094 L 132.757812 43.878906 L 132.375 43.878906 Z M 133.511719 36.242188 L 130.121094 42.15625 L 131.722656 42.15625 L 131.699219 42.15625 L 131.796875 42.730469 C 131.863281 42.035156 132.1875 41.542969 132.574219 41.328125 C 132.574219 40.585938 132.671875 39.628906 133.511719 38.601562 C 134.351562 39.628906 134.453125 40.585938 134.453125 41.328125 C 134.839844 41.542969 135.164062 42.035156 135.230469 42.730469 L 135.328125 42.15625 L 135.304688 42.15625 L 136.902344 42.15625 Z M 133.511719 40.933594 C 133.757812 40.933594 133.957031 40.734375 133.957031 40.488281 C 133.957031 40.242188 133.757812 40.042969 133.511719 40.042969 C 133.269531 40.042969 133.070312 40.242188 133.070312 40.488281 C 133.070312 40.734375 133.269531 40.933594 133.511719 40.933594 Z M 134.269531 42.371094 C 134.40625 42.425781 134.53125 42.492188 134.652344 42.574219 L 134.652344 43.878906 L 134.269531 43.878906 Z M 133.511719 42.222656 C 133.578125 42.222656 133.640625 42.226562 133.703125 42.234375 L 133.703125 44.808594 L 133.324219 44.808594 L 133.324219 42.234375 C 133.386719 42.226562 133.449219 42.222656 133.511719 42.222656 Z M 133.511719 42.222656 " fill-opacity="1" fill-rule="evenodd"/></g><g clip-path="url(#5945d4ac5e)"><g clip-path="url(#4106f4c96a)"><path fill="#000000" d="M 19.59375 55.386719 L 137.234375 55.386719 L 137.234375 60.304688 L 19.59375 60.304688 Z M 19.59375 55.386719 " fill-opacity="1" fill-rule="nonzero"/></g></g><g fill="#fffafa" fill-opacity="1"><g transform="translate(19.594844, 51.704765)"><g><path d="M 2 0.078125 C 1.644531 0.078125 1.300781 0.03125 0.96875 -0.0625 C 0.644531 -0.15625 0.378906 -0.28125 0.171875 -0.4375 L 0.53125 -1.21875 C 0.71875 -1.070312 0.941406 -0.957031 1.203125 -0.875 C 1.472656 -0.789062 1.738281 -0.75 2 -0.75 C 2.289062 -0.75 2.503906 -0.789062 2.640625 -0.875 C 2.785156 -0.96875 2.859375 -1.085938 2.859375 -1.234375 C 2.859375 -1.335938 2.816406 -1.421875 2.734375 -1.484375 C 2.648438 -1.554688 2.539062 -1.613281 2.40625 -1.65625 C 2.28125 -1.707031 2.109375 -1.753906 1.890625 -1.796875 C 1.554688 -1.878906 1.28125 -1.960938 1.0625 -2.046875 C 0.84375 -2.128906 0.65625 -2.257812 0.5 -2.4375 C 0.34375 -2.613281 0.265625 -2.851562 0.265625 -3.15625 C 0.265625 -3.40625 0.332031 -3.632812 0.46875 -3.84375 C 0.613281 -4.0625 0.828125 -4.226562 1.109375 -4.34375 C 1.390625 -4.46875 1.734375 -4.53125 2.140625 -4.53125 C 2.429688 -4.53125 2.710938 -4.492188 2.984375 -4.421875 C 3.253906 -4.359375 3.492188 -4.265625 3.703125 -4.140625 L 3.375 -3.359375 C 2.96875 -3.585938 2.554688 -3.703125 2.140625 -3.703125 C 1.847656 -3.703125 1.632812 -3.65625 1.5 -3.5625 C 1.363281 -3.476562 1.296875 -3.359375 1.296875 -3.203125 C 1.296875 -3.046875 1.375 -2.929688 1.53125 -2.859375 C 1.6875 -2.785156 1.929688 -2.710938 2.265625 -2.640625 C 2.597656 -2.554688 2.875 -2.472656 3.09375 -2.390625 C 3.3125 -2.316406 3.5 -2.191406 3.65625 -2.015625 C 3.8125 -1.835938 3.890625 -1.601562 3.890625 -1.3125 C 3.890625 -1.050781 3.816406 -0.816406 3.671875 -0.609375 C 3.535156 -0.398438 3.320312 -0.234375 3.03125 -0.109375 C 2.75 0.015625 2.40625 0.078125 2 0.078125 Z M 2 0.078125 "/></g></g></g><g fill="#fffafa" fill-opacity="1"><g transform="translate(23.796841, 51.704765)"><g><path d="M 2.6875 0.078125 C 2.226562 0.078125 1.8125 -0.0195312 1.4375 -0.21875 C 1.0625 -0.414062 0.769531 -0.691406 0.5625 -1.046875 C 0.351562 -1.398438 0.25 -1.796875 0.25 -2.234375 C 0.25 -2.671875 0.351562 -3.0625 0.5625 -3.40625 C 0.769531 -3.757812 1.0625 -4.035156 1.4375 -4.234375 C 1.8125 -4.429688 2.226562 -4.53125 2.6875 -4.53125 C 3.15625 -4.53125 3.570312 -4.429688 3.9375 -4.234375 C 4.3125 -4.035156 4.601562 -3.757812 4.8125 -3.40625 C 5.019531 -3.0625 5.125 -2.671875 5.125 -2.234375 C 5.125 -1.796875 5.019531 -1.398438 4.8125 -1.046875 C 4.601562 -0.691406 4.3125 -0.414062 3.9375 -0.21875 C 3.570312 -0.0195312 3.15625 0.078125 2.6875 0.078125 Z M 2.6875 -0.796875 C 2.945312 -0.796875 3.179688 -0.859375 3.390625 -0.984375 C 3.609375 -1.109375 3.78125 -1.273438 3.90625 -1.484375 C 4.03125 -1.703125 4.09375 -1.953125 4.09375 -2.234375 C 4.09375 -2.503906 4.03125 -2.75 3.90625 -2.96875 C 3.78125 -3.1875 3.609375 -3.351562 3.390625 -3.46875 C 3.179688 -3.59375 2.945312 -3.65625 2.6875 -3.65625 C 2.425781 -3.65625 2.1875 -3.59375 1.96875 -3.46875 C 1.757812 -3.351562 1.59375 -3.1875 1.46875 -2.96875 C 1.351562 -2.75 1.296875 -2.503906 1.296875 -2.234375 C 1.296875 -1.953125 1.351562 -1.703125 1.46875 -1.484375 C 1.59375 -1.273438 1.757812 -1.109375 1.96875 -0.984375 C 2.1875 -0.859375 2.425781 -0.796875 2.6875 -0.796875 Z M 2.6875 -0.796875 "/></g></g></g><g fill="#fffafa" fill-opacity="1"><g transform="translate(29.31236, 51.704765)"><g><path d="M 1.5625 -3.640625 L 1.5625 -2.453125 L 3.625 -2.453125 L 3.625 -1.625 L 1.5625 -1.625 L 1.5625 0 L 0.53125 0 L 0.53125 -4.46875 L 3.90625 -4.46875 L 3.90625 -3.640625 Z M 1.5625 -3.640625 "/></g></g></g><g fill="#fffafa" fill-opacity="1"><g transform="translate(33.520738, 51.704765)"><g><path d="M 1.453125 -3.625 L 0.03125 -3.625 L 0.03125 -4.46875 L 3.921875 -4.46875 L 3.921875 -3.625 L 2.484375 -3.625 L 2.484375 0 L 1.453125 0 Z M 1.453125 -3.625 "/></g></g></g><g fill="#fffafa" fill-opacity="1"><g transform="translate(37.595206, 51.704765)"><g><path d="M 7.28125 -4.46875 L 5.8125 0 L 4.703125 0 L 3.71875 -3.015625 L 2.703125 0 L 1.609375 0 L 0.140625 -4.46875 L 1.21875 -4.46875 L 2.21875 -1.328125 L 3.265625 -4.46875 L 4.234375 -4.46875 L 5.25 -1.296875 L 6.28125 -4.46875 Z M 7.28125 -4.46875 "/></g></g></g><g fill="#fffafa" fill-opacity="1"><g transform="translate(45.144776, 51.704765)"><g><path d="M 3.46875 -0.953125 L 1.390625 -0.953125 L 1 0 L -0.0625 0 L 1.9375 -4.46875 L 2.953125 -4.46875 L 4.953125 0 L 3.859375 0 Z M 3.140625 -1.734375 L 2.4375 -3.453125 L 1.734375 -1.734375 Z M 3.140625 -1.734375 "/></g></g></g><g fill="#fffafa" fill-opacity="1"><g transform="translate(50.162942, 51.704765)"><g><path d="M 3.375 0 L 2.515625 -1.25 L 1.5625 -1.25 L 1.5625 0 L 0.53125 0 L 0.53125 -4.46875 L 2.453125 -4.46875 C 2.847656 -4.46875 3.191406 -4.398438 3.484375 -4.265625 C 3.773438 -4.128906 4 -3.941406 4.15625 -3.703125 C 4.320312 -3.460938 4.40625 -3.175781 4.40625 -2.84375 C 4.40625 -2.507812 4.320312 -2.222656 4.15625 -1.984375 C 4 -1.742188 3.773438 -1.5625 3.484375 -1.4375 L 4.484375 0 Z M 3.359375 -2.84375 C 3.359375 -3.09375 3.273438 -3.285156 3.109375 -3.421875 C 2.953125 -3.554688 2.71875 -3.625 2.40625 -3.625 L 1.5625 -3.625 L 1.5625 -2.0625 L 2.40625 -2.0625 C 2.71875 -2.0625 2.953125 -2.128906 3.109375 -2.265625 C 3.273438 -2.398438 3.359375 -2.59375 3.359375 -2.84375 Z M 3.359375 -2.84375 "/></g></g></g><g fill="#fffafa" fill-opacity="1"><g transform="translate(54.983449, 51.704765)"><g><path d="M 3.984375 -0.828125 L 3.984375 0 L 0.53125 0 L 0.53125 -4.46875 L 3.90625 -4.46875 L 3.90625 -3.640625 L 1.5625 -3.640625 L 1.5625 -2.671875 L 3.625 -2.671875 L 3.625 -1.859375 L 1.5625 -1.859375 L 1.5625 -0.828125 Z M 3.984375 -0.828125 "/></g></g></g><g fill="#fffafa" fill-opacity="1"><g transform="translate(59.395868, 51.704765)"><g/></g></g><g fill="#fffafa" fill-opacity="1"><g transform="translate(61.334271, 51.704765)"><g><path d="M 2 0.078125 C 1.644531 0.078125 1.300781 0.03125 0.96875 -0.0625 C 0.644531 -0.15625 0.378906 -0.28125 0.171875 -0.4375 L 0.53125 -1.21875 C 0.71875 -1.070312 0.941406 -0.957031 1.203125 -0.875 C 1.472656 -0.789062 1.738281 -0.75 2 -0.75 C 2.289062 -0.75 2.503906 -0.789062 2.640625 -0.875 C 2.785156 -0.96875 2.859375 -1.085938 2.859375 -1.234375 C 2.859375 -1.335938 2.816406 -1.421875 2.734375 -1.484375 C 2.648438 -1.554688 2.539062 -1.613281 2.40625 -1.65625 C 2.28125 -1.707031 2.109375 -1.753906 1.890625 -1.796875 C 1.554688 -1.878906 1.28125 -1.960938 1.0625 -2.046875 C 0.84375 -2.128906 0.65625 -2.257812 0.5 -2.4375 C 0.34375 -2.613281 0.265625 -2.851562 0.265625 -3.15625 C 0.265625 -3.40625 0.332031 -3.632812 0.46875 -3.84375 C 0.613281 -4.0625 0.828125 -4.226562 1.109375 -4.34375 C 1.390625 -4.46875 1.734375 -4.53125 2.140625 -4.53125 C 2.429688 -4.53125 2.710938 -4.492188 2.984375 -4.421875 C 3.253906 -4.359375 3.492188 -4.265625 3.703125 -4.140625 L 3.375 -3.359375 C 2.96875 -3.585938 2.554688 -3.703125 2.140625 -3.703125 C 1.847656 -3.703125 1.632812 -3.65625 1.5 -3.5625 C 1.363281 -3.476562 1.296875 -3.359375 1.296875 -3.203125 C 1.296875 -3.046875 1.375 -2.929688 1.53125 -2.859375 C 1.6875 -2.785156 1.929688 -2.710938 2.265625 -2.640625 C 2.597656 -2.554688 2.875 -2.472656 3.09375 -2.390625 C 3.3125 -2.316406 3.5 -2.191406 3.65625 -2.015625 C 3.8125 -1.835938 3.890625 -1.601562 3.890625 -1.3125 C 3.890625 -1.050781 3.816406 -0.816406 3.671875 -0.609375 C 3.535156 -0.398438 3.320312 -0.234375 3.03125 -0.109375 C 2.75 0.015625 2.40625 0.078125 2 0.078125 Z M 2 0.078125 "/></g></g></g><g fill="#fffafa" fill-opacity="1"><g transform="translate(65.536268, 51.704765)"><g><path d="M 2.6875 0.078125 C 2.226562 0.078125 1.8125 -0.0195312 1.4375 -0.21875 C 1.0625 -0.414062 0.769531 -0.691406 0.5625 -1.046875 C 0.351562 -1.398438 0.25 -1.796875 0.25 -2.234375 C 0.25 -2.671875 0.351562 -3.0625 0.5625 -3.40625 C 0.769531 -3.757812 1.0625 -4.035156 1.4375 -4.234375 C 1.8125 -4.429688 2.226562 -4.53125 2.6875 -4.53125 C 3.15625 -4.53125 3.570312 -4.429688 3.9375 -4.234375 C 4.3125 -4.035156 4.601562 -3.757812 4.8125 -3.40625 C 5.019531 -3.0625 5.125 -2.671875 5.125 -2.234375 C 5.125 -1.796875 5.019531 -1.398438 4.8125 -1.046875 C 4.601562 -0.691406 4.3125 -0.414062 3.9375 -0.21875 C 3.570312 -0.0195312 3.15625 0.078125 2.6875 0.078125 Z M 2.6875 -0.796875 C 2.945312 -0.796875 3.179688 -0.859375 3.390625 -0.984375 C 3.609375 -1.109375 3.78125 -1.273438 3.90625 -1.484375 C 4.03125 -1.703125 4.09375 -1.953125 4.09375 -2.234375 C 4.09375 -2.503906 4.03125 -2.75 3.90625 -2.96875 C 3.78125 -3.1875 3.609375 -3.351562 3.390625 -3.46875 C 3.179688 -3.59375 2.945312 -3.65625 2.6875 -3.65625 C 2.425781 -3.65625 2.1875 -3.59375 1.96875 -3.46875 C 1.757812 -3.351562 1.59375 -3.1875 1.46875 -2.96875 C 1.351562 -2.75 1.296875 -2.503906 1.296875 -2.234375 C 1.296875 -1.953125 1.351562 -1.703125 1.46875 -1.484375 C 1.59375 -1.273438 1.757812 -1.109375 1.96875 -0.984375 C 2.1875 -0.859375 2.425781 -0.796875 2.6875 -0.796875 Z M 2.6875 -0.796875 "/></g></g></g><g fill="#fffafa" fill-opacity="1"><g transform="translate(71.051786, 51.704765)"><g><path d="M 0.53125 -4.46875 L 1.5625 -4.46875 L 1.5625 -0.84375 L 3.796875 -0.84375 L 3.796875 0 L 0.53125 0 Z M 0.53125 -4.46875 "/></g></g></g><g fill="#fffafa" fill-opacity="1"><g transform="translate(75.036987, 51.704765)"><g><path d="M 2.515625 0.078125 C 1.878906 0.078125 1.378906 -0.0976562 1.015625 -0.453125 C 0.660156 -0.804688 0.484375 -1.3125 0.484375 -1.96875 L 0.484375 -4.46875 L 1.53125 -4.46875 L 1.53125 -2 C 1.53125 -1.195312 1.859375 -0.796875 2.515625 -0.796875 C 2.835938 -0.796875 3.082031 -0.894531 3.25 -1.09375 C 3.425781 -1.289062 3.515625 -1.59375 3.515625 -2 L 3.515625 -4.46875 L 4.53125 -4.46875 L 4.53125 -1.96875 C 4.53125 -1.3125 4.351562 -0.804688 4 -0.453125 C 3.644531 -0.0976562 3.148438 0.078125 2.515625 0.078125 Z M 2.515625 0.078125 "/></g></g></g><g fill="#fffafa" fill-opacity="1"><g transform="translate(80.195435, 51.704765)"><g><path d="M 1.453125 -3.625 L 0.03125 -3.625 L 0.03125 -4.46875 L 3.921875 -4.46875 L 3.921875 -3.625 L 2.484375 -3.625 L 2.484375 0 L 1.453125 0 Z M 1.453125 -3.625 "/></g></g></g><g fill="#fffafa" fill-opacity="1"><g transform="translate(84.269903, 51.704765)"><g><path d="M 0.53125 -4.46875 L 1.5625 -4.46875 L 1.5625 0 L 0.53125 0 Z M 0.53125 -4.46875 "/></g></g></g><g fill="#fffafa" fill-opacity="1"><g transform="translate(86.495243, 51.704765)"><g><path d="M 2.6875 0.078125 C 2.226562 0.078125 1.8125 -0.0195312 1.4375 -0.21875 C 1.0625 -0.414062 0.769531 -0.691406 0.5625 -1.046875 C 0.351562 -1.398438 0.25 -1.796875 0.25 -2.234375 C 0.25 -2.671875 0.351562 -3.0625 0.5625 -3.40625 C 0.769531 -3.757812 1.0625 -4.035156 1.4375 -4.234375 C 1.8125 -4.429688 2.226562 -4.53125 2.6875 -4.53125 C 3.15625 -4.53125 3.570312 -4.429688 3.9375 -4.234375 C 4.3125 -4.035156 4.601562 -3.757812 4.8125 -3.40625 C 5.019531 -3.0625 5.125 -2.671875 5.125 -2.234375 C 5.125 -1.796875 5.019531 -1.398438 4.8125 -1.046875 C 4.601562 -0.691406 4.3125 -0.414062 3.9375 -0.21875 C 3.570312 -0.0195312 3.15625 0.078125 2.6875 0.078125 Z M 2.6875 -0.796875 C 2.945312 -0.796875 3.179688 -0.859375 3.390625 -0.984375 C 3.609375 -1.109375 3.78125 -1.273438 3.90625 -1.484375 C 4.03125 -1.703125 4.09375 -1.953125 4.09375 -2.234375 C 4.09375 -2.503906 4.03125 -2.75 3.90625 -2.96875 C 3.78125 -3.1875 3.609375 -3.351562 3.390625 -3.46875 C 3.179688 -3.59375 2.945312 -3.65625 2.6875 -3.65625 C 2.425781 -3.65625 2.1875 -3.59375 1.96875 -3.46875 C 1.757812 -3.351562 1.59375 -3.1875 1.46875 -2.96875 C 1.351562 -2.75 1.296875 -2.503906 1.296875 -2.234375 C 1.296875 -1.953125 1.351562 -1.703125 1.46875 -1.484375 C 1.59375 -1.273438 1.757812 -1.109375 1.96875 -0.984375 C 2.1875 -0.859375 2.425781 -0.796875 2.6875 -0.796875 Z M 2.6875 -0.796875 "/></g></g></g><g fill="#fffafa" fill-opacity="1"><g transform="translate(92.010766, 51.704765)"><g><path d="M 4.625 -4.46875 L 4.625 0 L 3.78125 0 L 1.546875 -2.703125 L 1.546875 0 L 0.53125 0 L 0.53125 -4.46875 L 1.390625 -4.46875 L 3.609375 -1.75 L 3.609375 -4.46875 Z M 4.625 -4.46875 "/></g></g></g><g fill="#fffafa" fill-opacity="1"><g transform="translate(97.296743, 51.704765)"><g><path d="M 2 0.078125 C 1.644531 0.078125 1.300781 0.03125 0.96875 -0.0625 C 0.644531 -0.15625 0.378906 -0.28125 0.171875 -0.4375 L 0.53125 -1.21875 C 0.71875 -1.070312 0.941406 -0.957031 1.203125 -0.875 C 1.472656 -0.789062 1.738281 -0.75 2 -0.75 C 2.289062 -0.75 2.503906 -0.789062 2.640625 -0.875 C 2.785156 -0.96875 2.859375 -1.085938 2.859375 -1.234375 C 2.859375 -1.335938 2.816406 -1.421875 2.734375 -1.484375 C 2.648438 -1.554688 2.539062 -1.613281 2.40625 -1.65625 C 2.28125 -1.707031 2.109375 -1.753906 1.890625 -1.796875 C 1.554688 -1.878906 1.28125 -1.960938 1.0625 -2.046875 C 0.84375 -2.128906 0.65625 -2.257812 0.5 -2.4375 C 0.34375 -2.613281 0.265625 -2.851562 0.265625 -3.15625 C 0.265625 -3.40625 0.332031 -3.632812 0.46875 -3.84375 C 0.613281 -4.0625 0.828125 -4.226562 1.109375 -4.34375 C 1.390625 -4.46875 1.734375 -4.53125 2.140625 -4.53125 C 2.429688 -4.53125 2.710938 -4.492188 2.984375 -4.421875 C 3.253906 -4.359375 3.492188 -4.265625 3.703125 -4.140625 L 3.375 -3.359375 C 2.96875 -3.585938 2.554688 -3.703125 2.140625 -3.703125 C 1.847656 -3.703125 1.632812 -3.65625 1.5 -3.5625 C 1.363281 -3.476562 1.296875 -3.359375 1.296875 -3.203125 C 1.296875 -3.046875 1.375 -2.929688 1.53125 -2.859375 C 1.6875 -2.785156 1.929688 -2.710938 2.265625 -2.640625 C 2.597656 -2.554688 2.875 -2.472656 3.09375 -2.390625 C 3.3125 -2.316406 3.5 -2.191406 3.65625 -2.015625 C 3.8125 -1.835938 3.890625 -1.601562 3.890625 -1.3125 C 3.890625 -1.050781 3.816406 -0.816406 3.671875 -0.609375 C 3.535156 -0.398438 3.320312 -0.234375 3.03125 -0.109375 C 2.75 0.015625 2.40625 0.078125 2 0.078125 Z M 2 0.078125 "/></g></g></g><g fill="#fffafa" fill-opacity="1"><g transform="translate(101.498739, 51.704765)"><g/></g></g><g fill="#fffafa" fill-opacity="1"><g transform="translate(103.437142, 51.704765)"><g><path d="M 2.453125 -4.46875 C 2.847656 -4.46875 3.191406 -4.398438 3.484375 -4.265625 C 3.773438 -4.128906 4 -3.941406 4.15625 -3.703125 C 4.320312 -3.460938 4.40625 -3.175781 4.40625 -2.84375 C 4.40625 -2.519531 4.320312 -2.234375 4.15625 -1.984375 C 4 -1.742188 3.773438 -1.554688 3.484375 -1.421875 C 3.191406 -1.296875 2.847656 -1.234375 2.453125 -1.234375 L 1.5625 -1.234375 L 1.5625 0 L 0.53125 0 L 0.53125 -4.46875 Z M 2.40625 -2.078125 C 2.71875 -2.078125 2.953125 -2.140625 3.109375 -2.265625 C 3.273438 -2.398438 3.359375 -2.59375 3.359375 -2.84375 C 3.359375 -3.09375 3.273438 -3.285156 3.109375 -3.421875 C 2.953125 -3.554688 2.71875 -3.625 2.40625 -3.625 L 1.5625 -3.625 L 1.5625 -2.078125 Z M 2.40625 -2.078125 "/></g></g></g><g fill="#fffafa" fill-opacity="1"><g transform="translate(108.238512, 51.704765)"><g><path d="M 4.8125 -4.46875 L 2.890625 0 L 1.875 0 L -0.0625 -4.46875 L 1.0625 -4.46875 L 2.421875 -1.28125 L 3.796875 -4.46875 Z M 4.8125 -4.46875 "/></g></g></g><g fill="#fffafa" fill-opacity="1"><g transform="translate(113.12915, 51.704765)"><g><path d="M 1.453125 -3.625 L 0.03125 -3.625 L 0.03125 -4.46875 L 3.921875 -4.46875 L 3.921875 -3.625 L 2.484375 -3.625 L 2.484375 0 L 1.453125 0 Z M 1.453125 -3.625 "/></g></g></g><g fill="#fffafa" fill-opacity="1"><g transform="translate(117.203617, 51.704765)"><g><path d="M 0.828125 0.046875 C 0.660156 0.046875 0.515625 -0.0078125 0.390625 -0.125 C 0.273438 -0.25 0.21875 -0.398438 0.21875 -0.578125 C 0.21875 -0.753906 0.273438 -0.898438 0.390625 -1.015625 C 0.515625 -1.128906 0.660156 -1.1875 0.828125 -1.1875 C 1.003906 -1.1875 1.148438 -1.128906 1.265625 -1.015625 C 1.390625 -0.898438 1.453125 -0.753906 1.453125 -0.578125 C 1.453125 -0.398438 1.390625 -0.25 1.265625 -0.125 C 1.148438 -0.0078125 1.003906 0.046875 0.828125 0.046875 Z M 0.828125 0.046875 "/></g></g></g><g fill="#fffafa" fill-opacity="1"><g transform="translate(119.008119, 51.704765)"><g/></g></g><g fill="#fffafa" fill-opacity="1"><g transform="translate(120.946522, 51.704765)"><g><path d="M 0.53125 -4.46875 L 1.5625 -4.46875 L 1.5625 -0.84375 L 3.796875 -0.84375 L 3.796875 0 L 0.53125 0 Z M 0.53125 -4.46875 "/></g></g></g><g fill="#fffafa" fill-opacity="1"><g transform="translate(124.931723, 51.704765)"><g><path d="M 1.453125 -3.625 L 0.03125 -3.625 L 0.03125 -4.46875 L 3.921875 -4.46875 L 3.921875 -3.625 L 2.484375 -3.625 L 2.484375 0 L 1.453125 0 Z M 1.453125 -3.625 "/></g></g></g><g fill="#fffafa" fill-opacity="1"><g transform="translate(129.00619, 51.704765)"><g><path d="M 0.53125 -4.46875 L 2.5625 -4.46875 C 3.039062 -4.46875 3.46875 -4.375 3.84375 -4.1875 C 4.21875 -4 4.503906 -3.738281 4.703125 -3.40625 C 4.910156 -3.070312 5.015625 -2.679688 5.015625 -2.234375 C 5.015625 -1.785156 4.910156 -1.390625 4.703125 -1.046875 C 4.503906 -0.710938 4.21875 -0.453125 3.84375 -0.265625 C 3.46875 -0.0859375 3.039062 0 2.5625 0 L 0.53125 0 Z M 2.5 -0.84375 C 2.945312 -0.84375 3.300781 -0.96875 3.5625 -1.21875 C 3.832031 -1.46875 3.96875 -1.804688 3.96875 -2.234375 C 3.96875 -2.660156 3.832031 -2.992188 3.5625 -3.234375 C 3.300781 -3.484375 2.945312 -3.609375 2.5 -3.609375 L 1.5625 -3.609375 L 1.5625 -0.84375 Z M 2.5 -0.84375 "/></g></g></g><g fill="#fffafa" fill-opacity="1"><g transform="translate(134.406934, 51.704765)"><g><path d="M 0.828125 0.046875 C 0.660156 0.046875 0.515625 -0.0078125 0.390625 -0.125 C 0.273438 -0.25 0.21875 -0.398438 0.21875 -0.578125 C 0.21875 -0.753906 0.273438 -0.898438 0.390625 -1.015625 C 0.515625 -1.128906 0.660156 -1.1875 0.828125 -1.1875 C 1.003906 -1.1875 1.148438 -1.128906 1.265625 -1.015625 C 1.390625 -0.898438 1.453125 -0.753906 1.453125 -0.578125 C 1.453125 -0.398438 1.390625 -0.25 1.265625 -0.125 C 1.148438 -0.0078125 1.003906 0.046875 0.828125 0.046875 Z M 0.828125 0.046875 "/></g></g></g></svg>